<svg version="1.2" baseProfile="tiny" viewBox="0 0 18 17.55617" xmlns:xlink="http://www.w3.org/1999/xlink" xmlns="http://www.w3.org/2000/svg">
<path style="fill:#ffffff;" d="M 8.1542969 0 A 0.47127 0.47127 0 0 0 8.1074219 0.001953125 A 8.94266 8.94266 0 0 0 4.1191406 16.433594 L 0.86328125 16.335938 L 0.83984375 16.335938 A 0.42523 0.42523 0 0 0 0.83398438 17.1875 L 5.9042969 17.345703 L 5.9160156 17.345703 A 0.077 0.077 0 0 0 5.953125 17.339844 A 0.206 0.206 0 0 0 6.0136719 17.332031 A 0.42808 0.42808 0 0 0 6.3417969 16.931641 L 6.3417969 16.919922 A 0.59737 0.59737 0 0 0 6.3300781 16.816406 C 6.3239981 16.798166 6.3165569 16.774149 6.3105469 16.755859 L 6.2382812 16.433594 L 5.2851562 12.486328 A 0.43246 0.43246 0 0 0 4.8710938 12.158203 A 0.59742 0.59742 0 0 0 4.7675781 12.169922 L 4.7636719 12.171875 A 0.42312 0.42312 0 0 0 4.4589844 12.6875 L 5.2597656 16.001953 A 7.99891 7.99891 0 0 1 8.1757812 0.94335938 A 0.47447 0.47447 0 0 0 8.6132812 0.4375 L 8.6113281 0.43554688 A 0.47127 0.47127 0 0 0 8.1542969 0 z M 12.070312 0.2109375 A 0.077 0.077 0 0 0 12.046875 0.21679688 A 0.20637 0.20637 0 0 0 11.986328 0.22265625 A 0.4281 0.4281 0 0 0 11.658203 0.625 L 11.658203 0.63671875 A 0.5973 0.5973 0 0 0 11.669922 0.74023438 C 11.676002 0.75847437 11.683363 0.78253125 11.689453 0.80078125 L 11.761719 1.1230469 L 12.714844 5.0703125 A 0.43248 0.43248 0 0 0 13.128906 5.3984375 A 0.59841 0.59841 0 0 0 13.230469 5.3847656 L 13.236328 5.3847656 A 0.42314 0.42314 0 0 0 13.541016 4.8691406 L 12.740234 1.5527344 A 7.9989 7.9989 0 0 1 9.8242188 16.613281 A 0.47449 0.47449 0 0 0 9.3867188 17.117188 L 9.3867188 17.119141 A 0.47131 0.47131 0 0 0 9.8925781 17.554688 A 8.94267 8.94267 0 0 0 13.880859 1.1230469 L 17.136719 1.21875 L 17.160156 1.21875 A 0.42523 0.42523 0 0 0 17.166016 0.36914062 L 12.095703 0.2109375 L 12.083984 0.2109375 A 0.077 0.077 0 0 0 12.070312 0.2109375 z"/>
</svg>